<?xml version="1.0" standalone="no"?>
<!DOCTYPE svg PUBLIC "-//W3C//DTD SVG 20010904//EN"
 "http://www.w3.org/TR/2001/REC-SVG-20010904/DTD/svg10.dtd">
<svg version="1.0" xmlns="http://www.w3.org/2000/svg"
 width="401.000000pt" height="401.000000pt" viewBox="0 0 401.000000 401.000000"
 preserveAspectRatio="xMidYMid meet">
<metadata>
Created by potrace 1.14, written by Peter Selinger 2001-2017
</metadata>
<g transform="translate(0.000000,401.000000) scale(0.100000,-0.100000)"
fill="#000000" stroke="none">
<path d="M1666 3380 c-14 -39 -26 -75 -26 -80 0 -6 224 -175 390 -294 8 -6 2
7 -15 29 -47 64 -297 389 -310 403 -10 11 -17 -1 -39 -58z"/>
<path d="M1467 3333 c-3 -4 -19 -79 -37 -166 -22 -106 -30 -163 -24 -176 13
-27 448 -540 456 -538 4 1 72 87 151 191 l145 190 -42 31 c-22 17 -171 128
-331 245 -159 117 -295 217 -302 222 -6 5 -13 5 -16 1z"/>
<path d="M2015 2548 c-98 -128 -182 -238 -187 -245 -6 -7 16 -61 63 -155 39
-78 72 -144 73 -145 0 -1 73 14 161 33 88 19 206 44 261 56 56 11 107 24 114
28 9 5 -31 98 -141 326 -84 176 -156 323 -160 327 -3 5 -87 -96 -184 -225z"/>
<path d="M2270 2774 c0 -10 290 -615 300 -627 4 -5 61 16 126 45 l119 54 3
161 c2 146 1 161 -15 166 -14 4 -328 127 -520 204 -7 3 -13 1 -13 -3z"/>
<path d="M2245 2003 c-137 -31 -252 -57 -254 -59 -3 -3 444 -1236 458 -1261 4
-8 13 102 20 244 19 423 50 1024 55 1081 4 44 2 52 -12 51 -9 -1 -129 -26
-267 -56z"/>
<path d="M1795 1919 c-33 -4 -97 -13 -142 -20 l-83 -11 -276 -303 c-152 -167
-276 -306 -277 -310 0 -3 53 -170 119 -371 l119 -364 418 0 c266 0 417 4 417
10 0 5 -63 177 -141 381 -77 204 -138 377 -135 385 3 9 15 14 27 12 19 -3 38
-45 130 -288 59 -157 111 -291 116 -299 7 -11 31 -4 123 37 73 33 114 56 112
65 -1 10 -298 829 -378 1045 -15 39 -18 42 -52 41 -20 -1 -64 -5 -97 -10z"/>
<path d="M875 1006 c-71 -28 -139 -55 -149 -59 -15 -6 25 -41 210 -177 126
-94 230 -167 231 -163 5 14 -143 447 -153 449 -5 2 -67 -21 -139 -50z"/>
</g>
</svg>
